<svg xmlns="http://www.w3.org/2000/svg" viewBox="0 0 520 320"><defs><linearGradient id="felt" x2="0" y2="1"><stop stop-color="#347f6d"/><stop offset="1" stop-color="#124039"/></linearGradient><linearGradient id="paper" x2=".2" y2="1"><stop stop-color="#fffef5"/><stop offset="1" stop-color="#e1ddd0"/></linearGradient></defs><ellipse cx="260" cy="272" rx="187" ry="25" fill="#001917" opacity=".6"/><ellipse cx="260" cy="184" rx="228" ry="114" fill="#172624" stroke="#b49761" stroke-width="3"/><ellipse cx="260" cy="179" rx="210" ry="96" fill="url(#felt)" stroke="#435647" stroke-width="12"/><ellipse cx="260" cy="179" rx="182" ry="76" fill="none" stroke="#a1c5a4" opacity=".25"/><g transform="translate(158 61) rotate(-14 66 97)"><rect x="4" y="7" width="122" height="175" rx="12" fill="#001b20" opacity=".4"/><rect width="122" height="175" rx="11" fill="url(#paper)"/><text x="14" y="33" font-family="Georgia" font-size="29" font-weight="bold" fill="#1b2d38">A</text><text x="61" y="116" text-anchor="middle" font-family="Georgia" font-size="78" fill="#1b2d38">♠</text></g><g transform="translate(261 64) rotate(13 61 85)"><rect x="4" y="7" width="122" height="175" rx="12" fill="#001b20" opacity=".4"/><rect width="122" height="175" rx="11" fill="url(#paper)"/><text x="14" y="33" font-family="Georgia" font-size="29" font-weight="bold" fill="#b93b4b">A</text><text x="61" y="116" text-anchor="middle" font-family="Georgia" font-size="78" fill="#b93b4b">♥</text></g><g fill="#914d50" stroke="#f0dfb8" stroke-width="4" stroke-dasharray="10 6"><ellipse cx="122" cy="226" rx="36" ry="18"/><ellipse cx="122" cy="218" rx="36" ry="18"/><ellipse cx="122" cy="210" rx="36" ry="18"/></g><g fill="#2c6073" stroke="#e5e6d5" stroke-width="4" stroke-dasharray="10 6"><ellipse cx="392" cy="248" rx="35" ry="17"/><ellipse cx="392" cy="240" rx="35" ry="17"/></g><text x="260" y="280" text-anchor="middle" fill="#ecd9a7" font-size="17" font-family="Georgia" letter-spacing="5">CARDS</text></svg>
